<?xml version="1.0" encoding="utf-8"?>
<!-- Generator: Adobe Illustrator 17.0.0, SVG Export Plug-In . SVG Version: 6.00 Build 0)  -->
<!DOCTYPE svg PUBLIC "-//W3C//DTD SVG 1.1//EN" "http://www.w3.org/Graphics/SVG/1.1/DTD/svg11.dtd">
<svg version="1.1" id="Capa_1" xmlns="http://www.w3.org/2000/svg" xmlns:xlink="http://www.w3.org/1999/xlink" x="0px" y="0px"
	 width="841.89px" height="595.28px" viewBox="0 0 841.89 595.28" enable-background="new 0 0 841.89 595.28" xml:space="preserve">
<path fill="#D65113" d="M285.929,248.356h-12.129c-0.784,0-1.419,0.635-1.419,1.419l0.285,45.338c0,0.285-0.371,0.394-0.525,0.155
	l-29.501-45.805c-0.444-0.69-1.207-1.107-2.027-1.107h-13.329c-0.783,0-1.419,0.635-1.419,1.419v70.572
	c0,0.783,0.635,1.418,1.419,1.418h12.128c0.783,0,1.419-0.635,1.419-1.418l0.003-44.895c0-0.281,0.366-0.389,0.519-0.153
	l29.22,45.36c0.444,0.689,1.207,1.106,2.027,1.106h13.329c0.783,0,1.418-0.635,1.418-1.418v-70.572
	C287.348,248.992,286.713,248.356,285.929,248.356z"/>
<path fill="#D65113" d="M489.666,276.618c-3.727-4.692-9.746-7.068-16.268-7.068c-1.236,0-3.12,0.233-4.49,0.658
	c-1.406,0.435-3.533,1.607-4.798,2.839c-0.183,0.178-0.49,0.041-0.49-0.214v-0.908c0-0.784-0.635-1.419-1.419-1.419h-11.972
	c-0.784,0-1.418,0.635-1.418,1.419v48.422c0,0.783,0.635,1.418,1.418,1.418h11.976c0.784,0,1.419-0.635,1.419-1.418
	c0,0,0.046-29.509,0.046-29.81c0-4.6,3.787-7.318,8.101-7.318c5.219,0,7.872,3.712,8.147,7.806
	c0.002,0.028,0.006,29.322,0.006,29.322c0,0.783,0.635,1.418,1.419,1.418h11.973c0.783,0,1.418-0.635,1.418-1.418v-25.081
	C494.732,286.69,493.201,281.068,489.666,276.618z"/>
<path fill="#D65113" d="M439.355,270.508h-11.947c-0.791,0-1.432,0.641-1.432,1.432v0.879c0,0.243-0.273,0.378-0.47,0.236
	c-3.232-2.329-7.213-3.603-11.039-3.603c-6.629,0-12.532,2.264-17.547,6.731c-5.822,5.216-8.773,11.913-8.773,19.904
	c0,6.925,2.283,12.971,6.784,17.966c5.216,5.821,11.789,8.773,19.536,8.773c3.85,0,7.56-1.235,11.065-3.351
	c0.196-0.118,0.444,0.019,0.444,0.247v0.615c0,0.791,0.641,1.432,1.432,1.432h11.947c0.791,0,1.432-0.641,1.432-1.432V271.94
	C440.786,271.149,440.146,270.508,439.355,270.508z M414.676,309.117c-3.207,0-5.86-1.094-8.111-3.346
	c-2.29-2.29-3.452-5.548-3.452-9.684c0-3.534,0.859-6.426,2.555-8.596c2.298-2.915,5.176-4.333,8.798-4.333
	c3.441,0,6.139,1.071,8.25,3.276c2.267,2.365,3.417,5.595,3.417,9.6c0,3.542-0.849,6.477-2.517,8.716
	C421.387,307.689,418.462,309.117,414.676,309.117z"/>
<path fill="#D65113" d="M345.847,270.508h-11.946c-0.791,0-1.432,0.641-1.432,1.432v0.879c0,0.243-0.273,0.378-0.47,0.236
	c-3.232-2.329-7.213-3.603-11.04-3.603c-6.629,0-12.532,2.264-17.547,6.731c-5.822,5.216-8.773,11.913-8.773,19.904
	c0,6.925,2.283,12.971,6.784,17.966c5.216,5.821,11.789,8.773,19.536,8.773c3.85,0,7.56-1.235,11.065-3.351
	c0.196-0.118,0.445,0.019,0.445,0.247v0.615c0,0.791,0.641,1.432,1.432,1.432h11.946c0.791,0,1.432-0.641,1.432-1.432V271.94
	C347.279,271.149,346.637,270.508,345.847,270.508z M321.168,309.117c-3.207,0-5.859-1.094-8.11-3.346
	c-2.291-2.29-3.452-5.548-3.452-9.684c0-3.534,0.859-6.426,2.555-8.596c2.298-2.915,5.176-4.333,8.798-4.333
	c3.441,0,6.139,1.071,8.25,3.276c2.267,2.365,3.417,5.595,3.417,9.6c0,3.542-0.849,6.477-2.517,8.716
	C327.879,307.689,324.955,309.117,321.168,309.117z"/>
<path fill="#D65113" d="M575.109,270.508h-11.946c-0.791,0-1.432,0.641-1.432,1.432v0.879c0,0.243-0.273,0.378-0.47,0.236
	c-3.232-2.329-7.213-3.603-11.04-3.603c-6.629,0-12.532,2.264-17.547,6.731c-5.822,5.216-8.773,11.913-8.773,19.904
	c0,6.925,2.284,12.971,6.785,17.966c5.216,5.821,11.789,8.773,19.536,8.773c3.85,0,7.56-1.235,11.065-3.351
	c0.196-0.118,0.444,0.019,0.444,0.247v0.615c0,0.791,0.641,1.432,1.432,1.432h11.946c0.791,0,1.432-0.641,1.432-1.432V271.94
	C576.541,271.149,575.9,270.508,575.109,270.508z M550.43,309.117c-3.207,0-5.86-1.094-8.111-3.346
	c-2.29-2.29-3.452-5.548-3.452-9.684c0-3.534,0.859-6.426,2.555-8.596c2.298-2.915,5.176-4.333,8.798-4.333
	c3.441,0,6.139,1.071,8.25,3.276c2.267,2.365,3.417,5.595,3.417,9.6c0,3.542-0.849,6.477-2.518,8.716
	C557.141,307.689,554.217,309.117,550.43,309.117z"/>
<path fill="#D65113" d="M380.262,270.709c-2.659,0-5.765,1.215-7.58,2.642c-0.191,0.15-0.467,0.015-0.467-0.228v-1.199
	c0-0.784-0.635-1.419-1.419-1.419h-11.973c-0.783,0-1.419,0.635-1.419,1.419v48.422c0,0.783,0.635,1.418,1.419,1.418h11.973
	c0.784,0,1.419-0.635,1.419-1.418v-23.319c0-4.983,0.616-8.431,1.822-10.236c1.102-1.612,3.233-2.429,6.333-2.429
	c0.831,0,2.198,0.014,4.245,0.207c0.792,0.075,1.477-0.674,1.453-1.476v-10.665c0-0.719-0.542-1.328-1.257-1.41
	C383.036,270.813,381.506,270.709,380.262,270.709z"/>
<path fill="#D65113" d="M517.285,250.977c-1.768-1.702-3.87-2.565-6.248-2.565c-2.458,0-4.607,0.84-6.407,2.513
	c-1.76,1.699-2.652,3.794-2.652,6.229c0,2.505,0.892,4.636,2.636,6.319c1.713,1.713,3.839,2.582,6.317,2.582
	c2.451,0,4.589-0.863,6.373-2.583c1.712-1.716,2.58-3.823,2.58-6.264c0-2.347-0.863-4.432-2.565-6.197
	C517.308,250.999,517.297,250.989,517.285,250.977z"/>
<path fill="#D65113" d="M516.89,270.52H504.92c-0.784,0-1.419,0.635-1.419,1.419l0,50.856c-0.054,2.121-0.985,9.07-10.664,9.736
	c-0.743,0.051-1.313,0.683-1.313,1.428v11.5l0,0v0.032l0,0v0.032c0,0.006,0.004,0.01,0.005,0.015c0.026,0.766,0.65,1.38,1.422,1.38
	h0.086v-0.003c2.411-0.118,24.059-1.773,25.222-22.685c0.033-0.113,0.05-0.233,0.05-0.357v-51.936
	C518.309,271.155,517.674,270.52,516.89,270.52z"/>
<path fill="#D65113" d="M603.936,249.607c-0.481-0.748-1.377-1.251-2.266-1.251h-13.864c-1.12,0-1.795,1.241-1.186,2.181
	l22.139,34.211c0.123,0.19,0.123,0.434,0,0.624l-22.145,34.215c-0.608,0.939,0.066,2.178,1.185,2.178h13.919
	c0.888,0,1.705-0.445,2.188-1.191l21.62-33.576c0.76-1.18,0.76-2.696-0.001-3.876L603.936,249.607z"/>
<g>
	<path fill="#46007C" d="M629.964,290.007c-0.226-0.352-0.74-0.352-0.966,0l-7.232,11.22c-0.761,1.181-0.762,2.699-0.001,3.88
		l9.806,15.222c0.577,0.896,1.569,1.437,2.635,1.437h13.627c1.12,0,1.796-1.239,1.189-2.181L629.964,290.007z M649.21,320.444
		L649.21,320.444L649.21,320.444L649.21,320.444z"/>
	<path fill="#46007C" d="M631.579,249.792l-9.81,15.223c-0.761,1.181-0.761,2.698,0,3.88l7.232,11.229
		c0.224,0.347,0.73,0.347,0.954,0l19.092-29.632c0.595-0.922-0.068-2.137-1.165-2.137h-13.669
		C633.148,248.356,632.156,248.897,631.579,249.792z"/>
</g>
</svg>
